<svg xmlns="http://www.w3.org/2000/svg" viewBox="0 0 422 112" fill="none">
  
  
  <rect width="422" height="112" rx="18" fill="#16213A"></rect>
  <g transform="translate(12, 9)">
    <path d="M 26 34 C 21 36, 18 41, 18 47 C 18 53, 21 58, 27 60 C 36 63, 52 64.5, 64 63 C 74 62, 80 56, 81 47 C 81.5 41, 80 36, 76 33 C 78 27, 73 23, 68 26 C 66 27.2, 65 29, 64.5 30 C 56 27.5, 44 29, 34 32 C 31 33, 28 33.5, 26 34 Z" stroke="#EDEFE9" stroke-width="5.5" stroke-linejoin="round" stroke-linecap="round"></path>
    <path d="M 41 39.5 Q 45.5 44 50 40" stroke="#EDEFE9" stroke-width="4" stroke-linecap="round"></path>
    <circle cx="25" cy="44" r="2.4" fill="#9DBE8D"></circle>
    <path d="M109.53 57.40L109.53 57.40Q104.88 57.40 102.26 54.74Q99.64 52.07 99.64 47.02L99.64 47.02Q99.64 43.58 100.85 41.14Q102.06 38.71 104.23 37.42Q106.40 36.14 109.28 36.14L109.28 36.14Q111.52 36.14 113.27 36.91Q115.02 37.69 116.04 39.14Q117.06 40.60 117.10 42.62L117.10 42.62L113.44 43.58Q113.44 42.18 112.83 41.25Q112.23 40.32 111.25 39.86Q110.28 39.39 109.16 39.39L109.16 39.39Q107.80 39.39 106.56 40.12Q105.32 40.85 104.53 42.48Q103.73 44.10 103.73 46.80L103.73 46.80Q103.73 49.41 104.49 51.03Q105.25 52.66 106.59 53.40Q107.92 54.15 109.66 54.15L109.66 54.15Q111.39 54.15 112.41 53.45Q113.44 52.75 113.90 51.61Q114.37 50.46 114.43 49.06L114.43 49.06L117.87 49.65Q117.84 51.82 117.00 53.59Q116.17 55.36 114.35 56.38Q112.54 57.40 109.53 57.40ZM125.06 57L121.16 57L121.16 46.92L121.16 34.99L125.09 34.99L125.09 40.04Q125.09 41.34 124.91 42.77Q124.72 44.20 124.47 45.62L124.47 45.62L125.13 45.62Q125.78 43.14 127.02 41.76Q128.26 40.38 130.61 40.38L130.61 40.38Q136.22 40.38 136.22 48.32L136.22 48.32L136.22 57L132.29 57L132.29 48.88Q132.29 46.21 131.50 44.94Q130.71 43.67 129.12 43.67L129.12 43.67Q127.82 43.67 126.95 44.45Q126.09 45.22 125.62 46.55Q125.16 47.89 125.06 49.50L125.06 49.50L125.06 57ZM144.25 57L140.35 57L140.35 40.79L144.25 40.79L144.25 57ZM142.30 38.25L142.30 38.25Q139.85 38.25 139.85 36.26L139.85 36.26Q139.85 34.28 142.30 34.28L142.30 34.28Q144.78 34.28 144.78 36.26L144.78 36.26Q144.78 38.25 142.30 38.25ZM152.50 57L148.65 57L148.65 34.99L152.50 34.99L152.50 57ZM160.74 57L156.90 57L156.90 34.99L160.74 34.99L160.74 57ZM188.02 57L172.74 57L172.74 36.54L187.96 36.54L187.96 39.76L176.68 39.76L176.68 45.13L186.51 45.13L186.51 48.10L176.68 48.10L176.68 53.78L188.02 53.78L188.02 57ZM197.05 57.37L197.05 57.37Q194.47 57.37 193.26 55.99Q192.05 54.61 192.05 51.70L192.05 51.70L192.05 43.92L189.67 43.92L189.73 40.82L191.31 40.82Q192.21 40.82 192.63 40.54Q193.05 40.26 193.17 39.55L193.17 39.55L193.54 37.19L195.81 37.19L195.81 40.79L200.08 40.79L200.08 44.04L195.81 44.04L195.81 51.54Q195.81 52.69 196.35 53.22Q196.89 53.74 197.98 53.74L197.98 53.74Q198.53 53.74 199.12 53.61Q199.71 53.47 200.21 53.13L200.21 53.13L200.21 56.84Q199.25 57.16 198.46 57.26Q197.67 57.37 197.05 57.37ZM207.34 57L203.43 57L203.43 46.92L203.43 34.99L207.37 34.99L207.37 40.04Q207.37 41.34 207.18 42.77Q207.00 44.20 206.75 45.62L206.75 45.62L207.40 45.62Q208.05 43.14 209.29 41.76Q210.53 40.38 212.89 40.38L212.89 40.38Q218.50 40.38 218.50 48.32L218.50 48.32L218.50 57L214.56 57L214.56 48.88Q214.56 46.21 213.77 44.94Q212.98 43.67 211.40 43.67L211.40 43.67Q210.10 43.67 209.23 44.45Q208.36 45.22 207.90 46.55Q207.43 47.89 207.34 49.50L207.34 49.50L207.34 57ZM226.53 57L222.62 57L222.62 40.79L226.53 40.79L226.53 57ZM224.57 38.25L224.57 38.25Q222.12 38.25 222.12 36.26L222.12 36.26Q222.12 34.28 224.57 34.28L224.57 34.28Q227.05 34.28 227.05 36.26L227.05 36.26Q227.05 38.25 224.57 38.25ZM238.21 57.40L238.21 57.40Q235.42 57.40 233.61 56.30Q231.80 55.20 230.91 53.33Q230.03 51.45 230.03 49.09L230.03 49.09Q230.03 46.58 230.94 44.62Q231.86 42.65 233.66 41.52Q235.45 40.38 238.06 40.38L238.06 40.38Q240.94 40.38 242.74 41.79Q244.54 43.20 245.00 45.56L245.00 45.56L241.34 46.71Q241.22 45.31 240.32 44.41Q239.42 43.52 237.90 43.52L237.90 43.52Q235.95 43.52 234.96 45.00Q233.97 46.49 233.97 48.97L233.97 48.97Q233.97 51.51 235.02 52.97Q236.07 54.43 238.24 54.43L238.24 54.43Q240.13 54.43 241.00 53.40Q241.87 52.38 242.03 50.99L242.03 50.99L245.50 51.76Q245.16 54.27 243.34 55.84Q241.53 57.40 238.21 57.40ZM252.26 57.40L252.26 57.40Q250.24 57.40 248.92 56.24Q247.61 55.08 247.61 52.81L247.61 52.81Q247.61 51.08 248.46 50.07Q249.31 49.06 251.02 48.49Q252.72 47.92 255.26 47.55L255.26 47.55Q256.81 47.33 257.54 47.05Q258.27 46.77 258.27 45.78L258.27 45.78Q258.27 44.82 257.59 44.12Q256.91 43.42 255.45 43.42L255.45 43.42Q254.12 43.42 252.97 44.15Q251.82 44.88 251.51 46.46L251.51 46.46L248.01 45.38Q248.66 42.93 250.60 41.66Q252.53 40.38 255.54 40.38L255.54 40.38Q258.92 40.38 260.53 42.06Q262.14 43.73 262.14 47.33L262.14 47.33L262.14 50.37Q262.14 51.95 262.24 53.68Q262.33 55.42 262.52 57L262.52 57L259.01 57Q258.77 55.30 258.64 53.13L258.64 53.13L258.15 53.13Q257.50 54.89 256.01 56.15Q254.52 57.40 252.26 57.40ZM253.81 54.52L253.81 54.52Q255.02 54.52 256.32 53.67Q257.62 52.81 258.36 51.08L258.36 51.08L258.33 48.91Q257.59 49.25 256.67 49.42Q255.76 49.59 254.83 49.73Q253.90 49.87 253.12 50.13Q252.35 50.40 251.87 50.89Q251.39 51.39 251.39 52.29L251.39 52.29Q251.39 53.34 252.07 53.93Q252.75 54.52 253.81 54.52ZM270.21 57L266.36 57L266.36 34.99L270.21 34.99L270.21 57ZM286.11 57L282.20 57L282.20 36.54L289.92 36.54Q293.89 36.54 296.18 38.37Q298.48 40.20 298.48 43.83L298.48 43.83Q298.48 47.36 296.07 49.20Q293.67 51.05 289.05 51.05L289.05 51.05L286.11 51.05L286.11 57ZM289.83 39.64L289.83 39.64L286.11 39.64L286.11 47.92L289.58 47.92Q292.03 47.92 293.27 46.94Q294.51 45.96 294.51 43.70L294.51 43.70Q294.51 39.64 289.83 39.64ZM309.02 57.40L309.02 57.40Q305.08 57.40 302.93 55.23Q300.77 53.06 300.77 49.19L300.77 49.19Q300.77 46.62 301.72 44.63Q302.66 42.65 304.44 41.52Q306.23 40.38 308.74 40.38L308.74 40.38Q312.27 40.38 314.26 42.72Q316.24 45.06 315.99 49.59L315.99 49.59L304.55 49.68Q304.68 52.10 305.87 53.30Q307.06 54.49 309.02 54.49L309.02 54.49Q310.85 54.49 311.65 53.64Q312.46 52.78 312.77 51.70L312.77 51.70L316.18 52.47Q315.65 54.74 313.92 56.07Q312.18 57.40 309.02 57.40ZM308.77 43.48L308.77 43.48Q307.19 43.48 306.12 44.51Q305.05 45.53 304.68 47.42L304.68 47.42L312.40 47.33Q312.27 45.38 311.23 44.43Q310.19 43.48 308.77 43.48ZM326.87 57.40L326.87 57.40Q324.49 57.40 322.66 56.43Q320.83 55.45 319.79 53.54Q318.75 51.64 318.75 48.85L318.75 48.85Q318.75 46.03 319.81 44.13Q320.86 42.24 322.70 41.31Q324.55 40.38 326.84 40.38L326.84 40.38Q329.20 40.38 331.04 41.34Q332.89 42.31 333.94 44.21Q335.00 46.12 335.00 48.94L335.00 48.94Q335.00 51.79 333.93 53.67Q332.86 55.54 331.03 56.47Q329.20 57.40 326.87 57.40ZM327.03 54.43L327.03 54.43Q328.95 54.43 330.02 53.05Q331.09 51.67 331.09 49.13L331.09 49.13Q331.09 46.49 329.97 44.99Q328.86 43.48 326.75 43.48L326.75 43.48Q324.86 43.48 323.77 44.83Q322.69 46.18 322.69 48.78L322.69 48.78Q322.69 51.51 323.84 52.97Q324.98 54.43 327.03 54.43ZM342.40 62.15L338.50 62.15L338.50 49.00L338.50 40.79L341.78 40.79L341.75 45.19L342.28 45.22Q342.75 42.89 344.08 41.64Q345.41 40.38 347.64 40.38L347.64 40.38Q349.81 40.38 351.33 41.47Q352.85 42.55 353.64 44.48Q354.43 46.40 354.43 48.97L354.43 48.97Q354.43 51.39 353.70 53.30Q352.98 55.20 351.50 56.30Q350.03 57.40 347.86 57.40L347.86 57.40Q345.47 57.40 344.22 56.05Q342.96 54.71 342.31 52.57L342.31 52.57L341.75 52.57Q342.00 53.84 342.20 55.16Q342.40 56.47 342.40 57.65L342.40 57.65L342.40 62.15ZM346.59 54.21L346.59 54.21Q348.39 54.21 349.36 52.74Q350.34 51.27 350.34 48.94L350.34 48.94Q350.34 46.52 349.32 45.10Q348.29 43.67 346.53 43.67L346.53 43.67Q345.16 43.67 344.25 44.46Q343.33 45.25 342.87 46.41Q342.40 47.58 342.40 48.69L342.40 48.69L342.40 49.22Q342.40 50.21 342.87 51.39Q343.33 52.57 344.28 53.39Q345.23 54.21 346.59 54.21ZM361.81 57L357.97 57L357.97 34.99L361.81 34.99L361.81 57ZM373.53 57.40L373.53 57.40Q369.59 57.40 367.44 55.23Q365.28 53.06 365.28 49.19L365.28 49.19Q365.28 46.62 366.23 44.63Q367.17 42.65 368.96 41.52Q370.74 40.38 373.25 40.38L373.25 40.38Q376.78 40.38 378.77 42.72Q380.75 45.06 380.50 49.59L380.50 49.59L369.06 49.68Q369.19 52.10 370.38 53.30Q371.58 54.49 373.53 54.49L373.53 54.49Q375.36 54.49 376.16 53.64Q376.97 52.78 377.28 51.70L377.28 51.70L380.69 52.47Q380.16 54.74 378.43 56.07Q376.69 57.40 373.53 57.40ZM373.28 43.48L373.28 43.48Q371.70 43.48 370.63 44.51Q369.56 45.53 369.19 47.42L369.19 47.42L376.91 47.33Q376.78 45.38 375.74 44.43Q374.71 43.48 373.28 43.48Z" fill="#EDEFE9"></path>
  </g>
</svg>